<svg id="Layer_2" data-name="Layer 2" xmlns="http://www.w3.org/2000/svg" viewBox="0 0 158.93 37.61"><defs><style>.cls-1{fill:#fdc305}.cls-2{fill:#f06351}.cls-3{fill:#111}</style></defs><path class="cls-1" d="M6.07 20.72v-2.26a143.16 143.16 0 0120.17-1.33c0 .6 0 1.21-.06 1.82a25.67 25.67 0 016-1.82 16.67 16.67 0 00-32 3.26zM27.24 24.23c-1.16 1.28-1.39 1.2-1.39 3.45v9.18A16.64 16.64 0 0033.32 23a17 17 0 00-.32-3.1 33.26 33.26 0 00-5.76 4.33zM6.36 25.72s-3.79-1.44-5.19-1.83A9.06 9.06 0 000 23.61a16.65 16.65 0 008.68 14z"/><path class="cls-2" d="M26.29 17.12A90.08 90.08 0 0024.89.65S24.75-.64 24 .41a14.37 14.37 0 00-1.2 3.94 70.76 70.76 0 00-12.8.34C9.24 2 7.85.75 7.18 1s-.72 3.31-.72 3.31l-.33 14.1a143.08 143.08 0 0120.16-1.29z"/><path d="M12.41 14c0-.09 1 .68 1.41.92s.61.42.61.59-.27.34-.63.34a1.66 1.66 0 01-1-.27H14A8.36 8.36 0 0112.41 14zM19.89 14.11l-1.09 1.33c0 .06-.17.35.18.3a7.46 7.46 0 001.22-.29c.11 0 .07-.19-.11-.17s-.69.05-1 .11l.84-1.26s.07-.13-.04-.02zM16.75 20.2a2.3 2.3 0 001.09-1c.28-.65 0-.91-.44-1a2.43 2.43 0 00-1.74.34.62.62 0 00-.05 1 5 5 0 001.14.66z"/><path class="cls-2" d="M16.35 21.45a1.92 1.92 0 01-.46.6 1.71 1.71 0 01-1 .38 2.15 2.15 0 01-1.47-.43 2.26 2.26 0 01-.53-.44 1 1 0 00-.36-.26s.75 4.1 2.57 4.75 2.14-.75 2.2-1.13a5.66 5.66 0 00-.82-3.23c-.02-.31-.03-.11-.13-.24z"/><path d="M14.71 22.59a3.45 3.45 0 01-2.33-1.42.13.13 0 010-.2.13.13 0 01.2 0 3.26 3.26 0 002.11 1.3 2.09 2.09 0 001.63-1l.14-.19.1.21s.37.76 1 .8 1.05-.41 1.61-1.28a.13.13 0 01.2 0 .15.15 0 01.05.2c-.64 1-1.27 1.44-1.88 1.4a1.56 1.56 0 01-1.12-.76 2.26 2.26 0 01-1.71.94z"/><path class="cls-2" d="M26.24 18.92a57.76 57.76 0 00-5.07 5.19A31.43 31.43 0 0115.88 29c-.22-.53-1.62-1.51-1.62-1.51s-3.13-2.14-5.18-3.82a32.84 32.84 0 01-3.13-3l-2-.11a22.53 22.53 0 0012 8.8c.86-.14 3.27-1.86 5.07-3.26A59 59 0 0027 20.21a6.22 6.22 0 001.14-2c-1.14.39-1.9.71-1.9.71z"/><path class="cls-3" d="M72.26 27.88a6 6 0 01-1.06-3.79v-5.54a6 6 0 011.06-3.85 4.41 4.41 0 013.62-1.3 4.46 4.46 0 013.49 1.16 4.75 4.75 0 011 3.28v1.33H77v-1.53a4 4 0 00-.2-1.41c-.13-.31-.43-.47-.92-.47a.93.93 0 00-1 .51 3.27 3.27 0 00-.24 1.38v7.23a3.18 3.18 0 00.25 1.39.94.94 0 00.95.48.87.87 0 00.92-.48 3.87 3.87 0 00.2-1.39V23.3h3.37v1.33a5.06 5.06 0 01-1 3.36 4.36 4.36 0 01-3.5 1.21 4.41 4.41 0 01-3.57-1.32zM84.47 13.61h3.92L91.31 29h-3.18l-.53-3.24h-2.3L84.76 29h-3.24zm2.81 10.09l-.87-6-.83 6zM93.68 16.14h-2.35v-2.53h8.15v2.53h-2.33V29h-3.5zM105.71 13.61h6.05v1.6h-3.87v5.08H111v1.51h-3.14v5.63h3.91V29h-6.11zM113.53 13.61H115l4.43 10.2v-10.2h1.81V29h-1.39l-4.48-10.48V29h-1.87zM123.42 13.61h6v1.6h-3.88v5.08h3.15v1.51h-3.15v5.63h3.91V29h-6.11zM131.24 13.61h3.14a5.3 5.3 0 013.49 1 3.94 3.94 0 011.13 3.08c0 2-.64 3.17-1.92 3.58l2.2 7.7h-2.09l-2-7.2h-1.7V29h-2.17zm3 6.62a2.94 2.94 0 002-.55 2.62 2.62 0 00.61-2 4.12 4.12 0 00-.21-1.48 1.46 1.46 0 00-.75-.81 3.74 3.74 0 00-1.52-.25h-1v5.08zM141.75 27.84a6.8 6.8 0 01-.94-3.92v-5.13a9.61 9.61 0 01.38-2.92 3.2 3.2 0 011.29-1.75 4.43 4.43 0 012.52-.62 4 4 0 013.11 1.08A5 5 0 01149 18v.57h-2v-.48a8.79 8.79 0 00-.13-1.7 1.43 1.43 0 00-.57-.87 2.2 2.2 0 00-1.28-.31 2 2 0 00-1.35.41 1.92 1.92 0 00-.56 1.09 9.24 9.24 0 00-.13 1.82v5.68a5.52 5.52 0 00.43 2.54 2.11 2.11 0 003.33-.11 5.82 5.82 0 00.45-2.67v-1.09h-2v-1.51h4V29h-1.36l-.22-1.75a2.75 2.75 0 01-2.77 2 3.48 3.48 0 01-3.09-1.41zM153.51 23.55l-3.37-9.94h2l2.41 7.39 2.34-7.41h2l-3.35 9.94V29h-2.04z"/></svg>