<svg id="Layer_1" data-name="Layer 1" xmlns="http://www.w3.org/2000/svg" viewBox="0 0 67 50"><defs><clipPath id="clip-path" transform="translate(-1.52 -31.57)"><path fill="none" d="M1.52 42.57h67v28h-67z"/></clipPath><style>.cls-3{clip-path:url(#clip-path)}</style></defs><circle cx="33.5" cy="25" r="25" fill="#68b738"/><g class="cls-3"><path d="M63.05 45.48a7.85 7.85 0 012.27-2.32c.5-.33.82-.33 1.08.28a4.38 4.38 0 01.45 3 1.14 1.14 0 00.21 1c.28.37.53.77.79 1.16a3.25 3.25 0 01.46 3.1 2.65 2.65 0 00-.1 1.53 4.33 4.33 0 010 1.48 1.78 1.78 0 01-1.35 1.59 2.9 2.9 0 00-1.61 1 .6.6 0 01-.42.27c-.59.08-2.09-1.26-2.09-1.87v-.29c0-1.79-.08-2-1.71-2.69a2.25 2.25 0 01-.9-.61A.85.85 0 0059 52a.87.87 0 00-.64 1 33.94 33.94 0 01.18 3.63.76.76 0 00.11.42c1.55 2.25 2.13 4.89 2.9 7.43a3.85 3.85 0 003.7 3.14c.31 0 .63.1.94.16a2.1 2.1 0 011.69 1.58c.33 1 .16 1.27-.92 1.28s-2.17 0-3.25 0a1.47 1.47 0 01-1.14-.41 5.43 5.43 0 00-1.71-1 3.6 3.6 0 01-1.68-1.29 15 15 0 00-2-2.26c-1.42-1.45-2.88-2.85-4.22-4.37a5.62 5.62 0 01-1.58-3.81c0-.47-.11-.67-.59-.43a1.12 1.12 0 01-.49.15 2.73 2.73 0 00-2.59 2.09c-.44 1.07-1.07 2.06-1.59 3.1a4.85 4.85 0 00-.58 2.21 1.71 1.71 0 001.38 2 2.82 2.82 0 011.71 1.19c.42.78.3 1-.57 1h-3.39a.94.94 0 01-1-.55c-.28-.52-.62-1-.93-1.52a3 3 0 01-.32-2.74 5.52 5.52 0 000-2.65 4.21 4.21 0 01.86-3.48c.28-.33.31-.52-.2-.61a23.92 23.92 0 01-5.91-2h-.06c-1.6-.62-1.91-.48-2.36 1.14-.38 1.41-.79 2.81-1.09 4.24a8.48 8.48 0 00.56 4.58c.19.58.77.56 1.22.69a3.13 3.13 0 012.26 1.73c.33.79.29.9-.55.91s-1.72 0-2.58 0a3.22 3.22 0 01-2.09-.7c-2.4-1.62-3.08-4-3.28-6.72a7.13 7.13 0 00-2-4.19c-.21-.23-.39-.33-.69-.14a18.14 18.14 0 01-3.38 1.48A13.37 13.37 0 0017 62.63a5.52 5.52 0 00-1.12 2.56c-.13.9.12 1.28 1 1.53a1.75 1.75 0 011.44 1.72c.05.41-.1.63-.51.63h-4.05a.87.87 0 01-.67-.4 4.49 4.49 0 01-1-2.75 25.63 25.63 0 01.46-5.17 3 3 0 011.68-2.39c3-1.4 4.5-4 5.89-6.8.28-.56 0-.65-.45-.6a7.83 7.83 0 00-3.84 1.59 40.29 40.29 0 00-4.17 3.55 8.28 8.28 0 01-5.15 2.47c-3.45.24-5.18-1.77-5-5.11a4.84 4.84 0 011.21-3A2.1 2.1 0 015 49.65c.76.22 1 .61.64 1.33-.13.29-.32.55-.48.84a7 7 0 00-.49 1 1.83 1.83 0 001.73 2.67A5.92 5.92 0 0010.66 54a23.86 23.86 0 004-4.13 10.44 10.44 0 017.2-4 22.4 22.4 0 003.24-1 21 21 0 016.33-.88 7.09 7.09 0 002.93-.54 12.76 12.76 0 017.54-.48c2 .41 4 .91 6 1.39a8.07 8.07 0 003.49-.08 33.86 33.86 0 016.7-1 9.66 9.66 0 014.3.84c1 .45 1 .44.67 1.4" transform="translate(-1.52 -31.57)"/></g></svg>