<svg version="1.0" xmlns="http://www.w3.org/2000/svg" width="308" height="186.667" viewBox="0 0 231 140"><path d="M111.7 6.7c-2.9 4.9-33.5 58-39.9 69.3l-2 3.5 2.9-3.3c1.5-1.8 11.6-13.8 22.3-26.6 10.7-12.9 19.8-23.5 20.1-23.5.6-.1 24 51.1 23.6 51.6-.2.1-14.5 2.7-31.8 5.7l-31.4 5.4 45.3.1 45.3.1-1.2-2.2c-2-3.8-47.1-82.2-48.4-84.1-1.2-1.7-1.6-1.3-4.8 4z"/><path d="M99.2 62.5c.3 10.7 1.6 13 6.8 12.6 2.9-.1 4.9-.1 10 0 4.4.1 6-3.3 6-13.2 0-8.2-.2-8.9-2-8.9-1.7 0-1.9.8-2.2 8.7-.3 8.3-.4 8.8-2.5 9.1-2.2.3-2.3.1-2.3-8.7 0-9 0-9.1-2.5-9.1s-2.5.1-2.5 9c0 8.3-.1 9-2 9s-2-.7-2-9v-9h-5.2l.4 9.5zM49.2 112.9c-2.1 1.3-1 4.6 1.6 4.9 2.7.4 4-2.2 2.2-4.3-1.4-1.7-2-1.8-3.8-.6zM129 113.5c-1.8 2.1-.5 4.7 2.2 4.3 2.6-.3 3.7-3.6 1.6-4.9-1.8-1.2-2.4-1.1-3.8.6zM58 117c0 2.2-.4 4-1 4-.5 0-1 .9-1 2s.5 2 1 2c.6 0 1 1.6 1 3.5 0 4.2 2.2 9 4.5 9.9.9.3 3 .6 4.6.6 2.2 0 2.9-.5 2.9-2 0-1.4-.7-2-2.3-2-3.3 0-4.7-1.9-4.7-6.2 0-3.7.1-3.8 3.5-3.8 2.8 0 3.5-.4 3.5-2s-.7-2-3.5-2c-3.4 0-3.5-.1-3.5-4 0-3.6-.2-4-2.5-4-2.2 0-2.5.4-2.5 4zM19 124.5c0 10 .1 10.7 2.6 13.2 2 2 3.1 2.4 5.7 1.9 4.5-.9 4.8-.9 8.4-.1 2.6.6 3.6.3 5.7-1.8 2.5-2.5 2.6-3.2 2.6-13.2 0-10.5 0-10.5-2.5-10.5-2.4 0-2.4.1-2.7 10.2-.3 9.5-.4 10.3-2.3 10.3s-2-.8-2.3-10.3c-.3-10.1-.3-10.2-2.7-10.2-2.4 0-2.4.1-2.7 10.2-.3 9.5-.4 10.3-2.3 10.3s-2-.8-2.3-10.3c-.3-10.1-.3-10.2-2.7-10.2-2.5 0-2.5 0-2.5 10.5zM105 126.4V139h6.6c6.2 0 6.8-.2 10-3.4 3-3 3.4-4 3.4-8.5 0-4.4-.5-5.6-3.4-8.8-3.1-3.4-3.8-3.7-10-4.1l-6.6-.4v12.6zm13-5.4c4.4 4.4 3.1 10.9-2.6 13-5.1 2-5.4 1.6-5.4-7v-8h3c1.7 0 3.9.9 5 2zM76.9 121.5c-5.8 3.2-6.1 11.4-.6 16.1 6.2 5.2 14.7.6 14.7-8.1 0-3.6-.5-4.7-3.1-6.9-3.4-2.9-7.1-3.2-11-1.1zm9.1 5.6c2.6 4.7-2.5 10-6.9 7.2-2-1.3-2.6-6-1-7.9 1.8-2.2 6.6-1.8 7.9.7zM159.8 121.5c-5.9 3.2-5.8 13.9.2 17 3.6 1.9 5.4 1.9 9 0 1.8-.9 3.1-1.1 3.5-.5 1.7 2.7 2.5.2 2.5-8s-.8-10.7-2.5-8c-.4.7-1.4.5-2.8-.5-2.7-1.9-6.4-1.9-9.9 0zm9.2 5.4c2.2 4.1-.1 8.1-4.5 8.1-3.8 0-6-6.1-3.3-8.8 1.9-1.9 6.6-1.5 7.8.7zM197.3 121.2c-3 1.5-5.4 6.9-4.7 10.6 2 10 16.8 10.2 18.8.2 1.6-8.3-6.5-14.5-14.1-10.8zm9.1 6c.7 1.1.7 2.6 0 4.5-.7 2.2-1.7 2.9-4.2 3.1-2.6.3-3.4-.1-4.4-2.2-1.8-4.1.3-7.8 4.4-7.4 1.7.2 3.6 1.1 4.2 2zM49 130c0 8.3.1 9 2 9s2-.7 2-9-.1-9-2-9-2 .7-2 9zM129 130c0 8.3.1 9 2 9s2-.7 2-9-.1-9-2-9-2 .7-2 9zM136.3 122.2c.2.7 1.7 4.8 3.3 9 2.6 6.9 3.2 7.8 5.5 7.8s2.9-.9 5.7-8.4c1.8-4.5 3.2-8.6 3.2-9 0-.3-1.1-.6-2.4-.6-2.1 0-2.8.8-4.2 5.5-1 3-2.1 5.2-2.5 4.8-.3-.5-1.4-2.9-2.4-5.6-1.5-3.9-2.2-4.7-4.2-4.7-1.6 0-2.3.5-2 1.2zM179 129.9c0 8.4.1 9.1 2 9.1 1.8 0 2-.7 2-5.4 0-6.1 1.6-8.6 5.6-8.6 1.7 0 2.4-.5 2.4-2 0-1.7-.7-2-3.9-2-2.2 0-4.3.5-4.6 1-.5.8-1.1.7-2.1-.1-1.2-1-1.4.2-1.4 8z"/></svg>